<?xml version="1.0" encoding="UTF-8" standalone="no"?>
<!-- Created with Inkscape (http://www.inkscape.org/) -->

<svg
   xmlns:dc="http://purl.org/dc/elements/1.1/"
   xmlns:cc="http://creativecommons.org/ns#"
   xmlns:rdf="http://www.w3.org/1999/02/22-rdf-syntax-ns#"
   xmlns:svg="http://www.w3.org/2000/svg"
   xmlns="http://www.w3.org/2000/svg"
   xmlns:sodipodi="http://sodipodi.sourceforge.net/DTD/sodipodi-0.dtd"
   xmlns:inkscape="http://www.inkscape.org/namespaces/inkscape"
   width="744.09448819"
   height="1052.3622047"
   id="svg2"
   version="1.1"
   inkscape:version="0.48.3.1 r9886"
   sodipodi:docname="logo.svg">
  <defs
     id="defs4" />
  <sodipodi:namedview
     id="base"
     pagecolor="#ffffff"
     bordercolor="#666666"
     borderopacity="1.0"
     inkscape:pageopacity="0.0"
     inkscape:pageshadow="2"
     inkscape:zoom="4"
     inkscape:cx="221.44659"
     inkscape:cy="720.90029"
     inkscape:document-units="px"
     inkscape:current-layer="layer1"
     showgrid="true"
     inkscape:snap-global="false"
     inkscape:window-width="1366"
     inkscape:window-height="752"
     inkscape:window-x="0"
     inkscape:window-y="16"
     inkscape:window-maximized="0">
    <inkscape:grid
       type="xygrid"
       id="grid2993"
       empspacing="5"
       visible="true"
       enabled="true"
       snapvisiblegridlinesonly="true" />
  </sodipodi:namedview>
  <metadata
     id="metadata7">
    <rdf:RDF>
      <cc:Work
         rdf:about="">
        <dc:format>image/svg+xml</dc:format>
        <dc:type
           rdf:resource="http://purl.org/dc/dcmitype/StillImage" />
        <dc:title></dc:title>
      </cc:Work>
    </rdf:RDF>
  </metadata>
  <g
     inkscape:label="Layer 1"
     inkscape:groupmode="layer"
     id="layer1">
    <text
       xml:space="preserve"
       style="font-size:15px;font-style:italic;font-variant:normal;font-weight:bold;font-stretch:normal;line-height:125%;letter-spacing:0px;word-spacing:0px;fill:#98a3ff;fill-opacity:1;stroke:none;font-family:World Colors;-inkscape-font-specification:World Colors Bold Italic"
       x="210"
       y="392.36218"
       id="text2985"
       sodipodi:linespacing="125%"><tspan
         sodipodi:role="line"
         id="tspan2987"
         x="210"
         y="392.36218"
         style="font-style:normal;font-variant:normal;font-weight:bold;font-stretch:normal;font-family:mry_KacstQurn;-inkscape-font-specification:mry_KacstQurn Bold;fill:#98a3ff;fill-opacity:1">Code</tspan></text>
    <text
       xml:space="preserve"
       style="font-size:15px;font-style:normal;font-variant:normal;font-weight:normal;font-stretch:normal;line-height:125%;letter-spacing:0px;word-spacing:0px;fill:#98ffff;fill-opacity:1;stroke:none;font-family:Ubuntu Mono;-inkscape-font-specification:Ubuntu Mono"
       x="255"
       y="392.36218"
       id="text2989"
       sodipodi:linespacing="125%"><tspan
         sodipodi:role="line"
         id="tspan2991"
         x="255"
         y="392.36218"
         style="-inkscape-font-specification:mry_KacstQurn;font-family:mry_KacstQurn;font-weight:normal;font-style:normal;font-stretch:normal;font-variant:normal;fill:#98ffff;fill-opacity:1">Battles</tspan></text>
    <text
       xml:space="preserve"
       style="font-size:15px;font-style:normal;font-variant:normal;font-weight:normal;font-stretch:normal;line-height:125%;letter-spacing:0px;word-spacing:0px;fill:#000000;fill-opacity:1;stroke:none;font-family:Ubuntu Mono;-inkscape-font-specification:Ubuntu Mono"
       x="164.3125"
       y="392.86218"
       id="text3763"
       sodipodi:linespacing="125%"><tspan
         sodipodi:role="line"
         id="tspan3765"
         x="164.3125"
         y="392.86218">{}</tspan></text>
    <path
       id="path3776-2"
       style="fill:none;stroke:#000000;stroke-width:1px;stroke-linecap:butt;stroke-linejoin:miter;stroke-opacity:1"
       d="m 164.23095,394.85935 -1.41263,0.0158 -1.5468,-0.99437 0,-3.42504 -1.89283,-1.5947 1.89522,-1.59471 0,-3.42504 1.5468,-0.99437 1.41263,0.0158"
       inkscape:connector-curvature="0"
       sodipodi:nodetypes="ccccccccc" />
    <path
       id="path3776-2-7"
       style="fill:none;stroke:#000000;stroke-width:1px;stroke-linecap:butt;stroke-linejoin:miter;stroke-opacity:1"
       d="m 131.9974,382.60704 -0.83066,-0.0208 -0.90955,1.30635 0,4.49961 -1.11444,2.09503 1.11303,2.09502 0,4.49961 0.90956,1.30635 0.83066,-0.0208 0.004,2.99477 c 0,0 -4.2,0 -7,-1.27778 1,-3.72222 3,-9.72222 0,-17.88888 l 7,-3.83334 z"
       inkscape:connector-curvature="0"
       sodipodi:nodetypes="cccccccccccccc" />
    <path
       style="fill:none;stroke:#000000;stroke-width:1.33749342px;stroke-linecap:butt;stroke-linejoin:miter;stroke-opacity:1"
       d="m 186.0625,379.50802 7,-3.83334 0,23 c 0,0 -4.2,0 -7,-1.27778 1,-3.72222 3,-9.72222 0,-17.88888 z"
       id="path3767-5"
       inkscape:connector-curvature="0"
       sodipodi:nodetypes="ccccc" />
    <path
       id="path3776-2-7-0"
       style="fill:none;stroke:#000000;stroke-width:1px;stroke-linecap:butt;stroke-linejoin:miter;stroke-opacity:1"
       d="m 134.0026,382.60704 0.83066,-0.0208 0.90955,1.30635 0,4.49961 1.11444,2.09503 -1.11303,2.09502 0,4.49961 -0.90956,1.30635 -0.83066,-0.0208 -0.004,2.99477 c 0,0 4.2,0 7,-1.27778 -1,-3.72222 -3,-9.72222 0,-17.88888 l -7,-3.83334 z"
       inkscape:connector-curvature="0"
       sodipodi:nodetypes="cccccccccccccc" />
    <path
       id="path3767-5-4"
       style="fill:#98ffff;fill-opacity:1;stroke:#000000;stroke-width:0.1;stroke-linecap:butt;stroke-linejoin:miter;stroke-miterlimit:4;stroke-opacity:0.10344831;stroke-dasharray:none"
       d="m 169.15387,336.69618 c 0,0 4.50876,0 6.70556,-1.27778 -0.78457,-3.72222 -2.35371,-9.72222 0,-17.88888 l -6.70556,-3.83334 0.007,2.48413 c 0,0 0.71242,-0.0106 0.77365,-0.006 0.50423,0.0332 0.5134,1.51849 0.5134,1.51849 0,0 -0.01,3.2865 0,5.18959 -0.0387,1.16762 0.72461,2.42258 1.02903,2.41756 4.3e-4,0.0603 -0.002,0.0403 0,0.13016 -0.3012,0.0342 -1.06858,1.24994 -1.02978,2.41756 -0.01,1.90309 0,5.18959 0,5.18959 0,0 -0.009,1.48535 -0.51342,1.51849 -0.0612,0.005 -0.77364,-0.006 -0.77364,-0.006 z"
       inkscape:connector-curvature="0"
       sodipodi:nodetypes="ccccccccccccccc"
       inkscape:export-filename="/home/gangsterveggies/Documents/Meteor/codebattles/logo_text.png"
       inkscape:export-xdpi="934.05408"
       inkscape:export-ydpi="934.05408" />
    <path
       style="fill:#000000;fill-opacity:0.06896554;stroke:none"
       d="m 170.47772,332.23581 c 0,0 0.32729,0.56944 1.34375,0.8125 1.01647,0.24307 3.375,-0.71875 3.375,-0.71875 l 0.0312,0.0312 c 0.21375,1.1554 0.43654,2.19966 0.625,3.09375 -2.1968,1.27778 -6.71875,1.28125 -6.71875,1.28125 l 0,-2.15625 c 0,0 0.72005,0.005 0.78125,0 0.50442,-0.0331 0.53125,-1.5 0.53125,-1.5 0,0 3.8e-4,-0.6692 0,-0.8125 l 0.0312,-0.0312 z"
       id="path3767-5-4-2"
       inkscape:connector-curvature="0"
       inkscape:export-filename="/home/gangsterveggies/Documents/Meteor/codebattles/logo_text.png"
       inkscape:export-xdpi="934.05408"
       inkscape:export-ydpi="934.05408" />
    <path
       style="fill:#ffffff;fill-opacity:0.51231528;stroke:none"
       d="m 175.10201,320.73524 -4.66015,-1.30468 0.004,-0.875 4.75391,1.65625 z"
       id="path3993"
       inkscape:connector-curvature="0"
       sodipodi:nodetypes="ccccc"
       inkscape:export-filename="/home/gangsterveggies/Documents/Meteor/codebattles/logo_text.png"
       inkscape:export-xdpi="934.05408"
       inkscape:export-ydpi="934.05408" />
    <path
       style="fill:#ffffff;fill-opacity:0.51231528;stroke:none"
       d="m 175.00862,321.25061 -4.5664,-0.96874 0.008,-0.52734 4.59766,1.26562 z"
       id="path3993-0"
       inkscape:connector-curvature="0"
       sodipodi:nodetypes="ccccc"
       inkscape:export-filename="/home/gangsterveggies/Documents/Meteor/codebattles/logo_text.png"
       inkscape:export-xdpi="934.05408"
       inkscape:export-ydpi="934.05408" />
    <path
       id="path3767-5-4-9"
       style="fill:#98a3ff;fill-opacity:1;stroke:#000000;stroke-width:0.1;stroke-linecap:butt;stroke-linejoin:miter;stroke-miterlimit:4;stroke-opacity:0.10344831;stroke-dasharray:none"
       d="m 168.26243,336.69618 c 0,0 -4.50876,0 -6.70556,-1.27778 0.78457,-3.72222 2.35371,-9.72222 0,-17.88888 l 6.70556,-3.83334 -0.007,2.48413 c 0,0 -0.71242,-0.0106 -0.77365,-0.006 -0.50423,0.0332 -0.5134,1.51849 -0.5134,1.51849 0,0 0.01,3.2865 0,5.18959 0.0387,1.16762 -0.72461,2.42258 -1.02903,2.41756 -4.3e-4,0.0603 0.002,0.0403 0,0.13016 0.3012,0.0342 1.06858,1.24994 1.02978,2.41756 0.01,1.90309 0,5.18959 0,5.18959 0,0 0.009,1.48535 0.51342,1.51849 0.0612,0.005 0.77364,-0.006 0.77364,-0.006 z"
       inkscape:connector-curvature="0"
       sodipodi:nodetypes="ccccccccccccccc"
       inkscape:export-filename="/home/gangsterveggies/Documents/Meteor/codebattles/logo_text.png"
       inkscape:export-xdpi="934.05408"
       inkscape:export-ydpi="934.05408" />
    <path
       style="fill:#000000;fill-opacity:0.06896554;stroke:none"
       d="m 166.93858,332.23581 c 0,0 -0.32729,0.56944 -1.34375,0.8125 -1.01647,0.24307 -3.375,-0.71875 -3.375,-0.71875 l -0.0312,0.0312 c -0.21375,1.1554 -0.43654,2.19966 -0.625,3.09375 2.1968,1.27778 6.71875,1.28125 6.71875,1.28125 l 0,-2.15625 c 0,0 -0.72005,0.005 -0.78125,0 -0.50442,-0.0331 -0.53125,-1.5 -0.53125,-1.5 0,0 -3.8e-4,-0.6692 0,-0.8125 l -0.0312,-0.0312 z"
       id="path3767-5-4-2-9"
       inkscape:connector-curvature="0"
       inkscape:export-filename="/home/gangsterveggies/Documents/Meteor/codebattles/logo_text.png"
       inkscape:export-xdpi="934.05408"
       inkscape:export-ydpi="934.05408" />
    <path
       style="fill:#ffffff;fill-opacity:0.51231528;stroke:none"
       d="m 162.31429,320.73524 4.66015,-1.30468 -0.004,-0.875 -4.75391,1.65625 z"
       id="path3993-4"
       inkscape:connector-curvature="0"
       sodipodi:nodetypes="ccccc"
       inkscape:export-filename="/home/gangsterveggies/Documents/Meteor/codebattles/logo_text.png"
       inkscape:export-xdpi="934.05408"
       inkscape:export-ydpi="934.05408" />
    <path
       style="fill:#ffffff;fill-opacity:0.51231528;stroke:none"
       d="m 162.40768,321.25061 4.5664,-0.96874 -0.008,-0.52734 -4.59766,1.26562 z"
       id="path3993-0-0"
       inkscape:connector-curvature="0"
       sodipodi:nodetypes="ccccc"
       inkscape:export-filename="/home/gangsterveggies/Documents/Meteor/codebattles/logo_text.png"
       inkscape:export-xdpi="934.05408"
       inkscape:export-ydpi="934.05408" />
    <text
       xml:space="preserve"
       style="font-size:15px;font-style:italic;font-variant:normal;font-weight:bold;font-stretch:normal;line-height:125%;letter-spacing:0px;word-spacing:0px;fill:#98a3ff;fill-opacity:1;stroke:none;font-family:World Colors;-inkscape-font-specification:World Colors Bold Italic"
       x="180.36359"
       y="331.40201"
       id="text2985-6"
       sodipodi:linespacing="125%"
       inkscape:export-filename="/home/gangsterveggies/Documents/Meteor/codebattles/logo_text.png"
       inkscape:export-xdpi="934.05408"
       inkscape:export-ydpi="934.05408"><tspan
         sodipodi:role="line"
         id="tspan2987-4"
         x="180.36359"
         y="331.40201"
         style="font-style:normal;font-variant:normal;font-weight:bold;font-stretch:normal;fill:#98a3ff;fill-opacity:1;font-family:mry_KacstQurn;-inkscape-font-specification:mry_KacstQurn Bold">Code</tspan></text>
    <text
       xml:space="preserve"
       style="font-size:15px;font-style:normal;font-variant:normal;font-weight:normal;font-stretch:normal;line-height:125%;letter-spacing:0px;word-spacing:0px;fill:#98ffff;fill-opacity:1;stroke:none;font-family:Ubuntu Mono;-inkscape-font-specification:Ubuntu Mono"
       x="225.36359"
       y="331.40201"
       id="text2989-5"
       sodipodi:linespacing="125%"
       inkscape:export-filename="/home/gangsterveggies/Documents/Meteor/codebattles/logo_text.png"
       inkscape:export-xdpi="934.05408"
       inkscape:export-ydpi="934.05408"><tspan
         sodipodi:role="line"
         id="tspan2991-2"
         x="225.36359"
         y="331.40201"
         style="font-style:normal;font-variant:normal;font-weight:normal;font-stretch:normal;fill:#98ffff;fill-opacity:1;font-family:mry_KacstQurn;-inkscape-font-specification:mry_KacstQurn">Battles</tspan></text>
    <path
       id="path3767-5-4-95"
       style="fill:#98ffff;fill-opacity:1;stroke:#000000;stroke-width:0.1;stroke-linecap:butt;stroke-linejoin:miter;stroke-miterlimit:4;stroke-opacity:0.10344831;stroke-dasharray:none"
       d="m 230.25543,298.06554 c 0,0 4.50876,0 6.70556,-1.27778 -0.78457,-3.72222 -2.35371,-9.72222 0,-17.88888 l -6.70556,-3.83334 0.007,2.48413 c 0,0 0.71242,-0.0106 0.77365,-0.006 0.50423,0.0332 0.5134,1.51849 0.5134,1.51849 0,0 -0.01,3.2865 0,5.18959 -0.0387,1.16762 0.72461,2.42258 1.02903,2.41756 4.3e-4,0.0603 -0.002,0.0403 0,0.13016 -0.3012,0.0342 -1.06858,1.24994 -1.02978,2.41756 -0.01,1.90309 0,5.18959 0,5.18959 0,0 -0.009,1.48535 -0.51342,1.51849 -0.0612,0.005 -0.77364,-0.006 -0.77364,-0.006 z"
       inkscape:connector-curvature="0"
       sodipodi:nodetypes="ccccccccccccccc"
       inkscape:export-filename="/home/gangsterveggies/Documents/Meteor/codebattles/logo.png"
       inkscape:export-xdpi="2331.4285"
       inkscape:export-ydpi="2331.4285" />
    <path
       style="fill:#000000;fill-opacity:0.06896554;stroke:none"
       d="m 231.57928,293.60517 c 0,0 0.32729,0.56944 1.34375,0.8125 1.01647,0.24307 3.375,-0.71875 3.375,-0.71875 l 0.0312,0.0312 c 0.21375,1.1554 0.43654,2.19966 0.625,3.09375 -2.1968,1.27778 -6.71875,1.28125 -6.71875,1.28125 l 0,-2.15625 c 0,0 0.72005,0.005 0.78125,0 0.50442,-0.0331 0.53125,-1.5 0.53125,-1.5 0,0 3.8e-4,-0.6692 0,-0.8125 l 0.0312,-0.0312 z"
       id="path3767-5-4-2-5"
       inkscape:connector-curvature="0"
       inkscape:export-filename="/home/gangsterveggies/Documents/Meteor/codebattles/logo.png"
       inkscape:export-xdpi="2331.4285"
       inkscape:export-ydpi="2331.4285" />
    <path
       style="fill:#ffffff;fill-opacity:0.51231528;stroke:none"
       d="m 236.20357,282.1046 -4.66015,-1.30468 0.004,-0.875 4.75391,1.65625 z"
       id="path3993-3"
       inkscape:connector-curvature="0"
       sodipodi:nodetypes="ccccc"
       inkscape:export-filename="/home/gangsterveggies/Documents/Meteor/codebattles/logo.png"
       inkscape:export-xdpi="2331.4285"
       inkscape:export-ydpi="2331.4285" />
    <path
       style="fill:#ffffff;fill-opacity:0.51231528;stroke:none"
       d="m 236.11018,282.61997 -4.5664,-0.96874 0.008,-0.52734 4.59766,1.26562 z"
       id="path3993-0-9"
       inkscape:connector-curvature="0"
       sodipodi:nodetypes="ccccc"
       inkscape:export-filename="/home/gangsterveggies/Documents/Meteor/codebattles/logo.png"
       inkscape:export-xdpi="2331.4285"
       inkscape:export-ydpi="2331.4285" />
    <path
       id="path3767-5-4-9-2"
       style="fill:#98a3ff;fill-opacity:1;stroke:#000000;stroke-width:0.1;stroke-linecap:butt;stroke-linejoin:miter;stroke-miterlimit:4;stroke-opacity:0.10344831;stroke-dasharray:none"
       d="m 229.36399,298.06554 c 0,0 -4.50876,0 -6.70556,-1.27778 0.78457,-3.72222 2.35371,-9.72222 0,-17.88888 l 6.70556,-3.83334 -0.007,2.48413 c 0,0 -0.71242,-0.0106 -0.77365,-0.006 -0.50423,0.0332 -0.5134,1.51849 -0.5134,1.51849 0,0 0.01,3.2865 0,5.18959 0.0387,1.16762 -0.72461,2.42258 -1.02903,2.41756 -4.3e-4,0.0603 0.002,0.0403 0,0.13016 0.3012,0.0342 1.06858,1.24994 1.02978,2.41756 0.01,1.90309 0,5.18959 0,5.18959 0,0 0.009,1.48535 0.51342,1.51849 0.0612,0.005 0.77364,-0.006 0.77364,-0.006 z"
       inkscape:connector-curvature="0"
       sodipodi:nodetypes="ccccccccccccccc"
       inkscape:export-filename="/home/gangsterveggies/Documents/Meteor/codebattles/logo.png"
       inkscape:export-xdpi="2331.4285"
       inkscape:export-ydpi="2331.4285" />
    <path
       style="fill:#000000;fill-opacity:0.06896554;stroke:none"
       d="m 228.04014,293.60517 c 0,0 -0.32729,0.56944 -1.34375,0.8125 -1.01647,0.24307 -3.375,-0.71875 -3.375,-0.71875 l -0.0312,0.0312 c -0.21375,1.1554 -0.43654,2.19966 -0.625,3.09375 2.1968,1.27778 6.71875,1.28125 6.71875,1.28125 l 0,-2.15625 c 0,0 -0.72005,0.005 -0.78125,0 -0.50442,-0.0331 -0.53125,-1.5 -0.53125,-1.5 0,0 -3.8e-4,-0.6692 0,-0.8125 l -0.0312,-0.0312 z"
       id="path3767-5-4-2-9-7"
       inkscape:connector-curvature="0"
       inkscape:export-filename="/home/gangsterveggies/Documents/Meteor/codebattles/logo.png"
       inkscape:export-xdpi="2331.4285"
       inkscape:export-ydpi="2331.4285" />
    <path
       style="fill:#ffffff;fill-opacity:0.51231528;stroke:none"
       d="m 223.41585,282.1046 4.66015,-1.30468 -0.004,-0.875 -4.75391,1.65625 z"
       id="path3993-4-3"
       inkscape:connector-curvature="0"
       sodipodi:nodetypes="ccccc"
       inkscape:export-filename="/home/gangsterveggies/Documents/Meteor/codebattles/logo.png"
       inkscape:export-xdpi="2331.4285"
       inkscape:export-ydpi="2331.4285" />
    <path
       style="fill:#ffffff;fill-opacity:0.51231528;stroke:none"
       d="m 223.50924,282.61997 4.5664,-0.96874 -0.008,-0.52734 -4.59766,1.26562 z"
       id="path3993-0-0-2"
       inkscape:connector-curvature="0"
       sodipodi:nodetypes="ccccc"
       inkscape:export-filename="/home/gangsterveggies/Documents/Meteor/codebattles/logo.png"
       inkscape:export-xdpi="2331.4285"
       inkscape:export-ydpi="2331.4285" />
  </g>
</svg>
